<?xml version="1.0" standalone="no"?>
<!DOCTYPE svg PUBLIC "-//W3C//DTD SVG 20010904//EN"
 "http://www.w3.org/TR/2001/REC-SVG-20010904/DTD/svg10.dtd">
<svg version="1.0" xmlns="http://www.w3.org/2000/svg"
 width="564.000000pt" height="407.000000pt" viewBox="0 0 564.000000 407.000000"
 preserveAspectRatio="xMidYMid meet">

<g transform="translate(0.000000,407.000000) scale(0.100000,-0.100000)"
fill="#000000" stroke="none">
<path d="M1260 2470 l0 -210 45 0 45 0 0 210 0 210 -45 0 -45 0 0 -210z m78
78 l-3 -123 -32 -3 -33 -3 0 125 0 126 35 0 36 0 -3 -122z m-8 -213 c20 -25 8
-50 -25 -50 -21 0 -31 5 -33 18 -4 21 14 47 33 47 7 0 18 -7 25 -15z"/>
<path d="M1292 2314 c4 -21 22 -23 26 -1 2 10 -3 17 -13 17 -10 0 -15 -6 -13
-16z"/>
<path d="M1360 2471 l1 -209 49 -4 50 -3 0 213 0 212 -50 0 -50 0 0 -209z m78
77 l-3 -123 -27 -1 -28 -1 -1 91 c0 50 -2 99 -4 110 -6 31 6 46 36 46 l30 0
-3 -122z m-10 -207 c8 -4 12 -19 10 -32 -2 -18 -9 -24 -28 -24 -19 0 -26 6
-28 24 -3 20 11 41 28 41 3 0 11 -4 18 -9z"/>
<path d="M1394 2319 c-10 -17 13 -36 27 -22 12 12 4 33 -11 33 -5 0 -12 -5
-16 -11z"/>
<path d="M3780 2564 c-41 -8 -110 -35 -110 -44 0 -5 16 -17 35 -26 53 -25 137
-123 176 -203 19 -39 42 -74 51 -77 27 -8 58 -54 58 -86 0 -71 -62 -126 -127
-113 -23 4 -37 13 -40 26 -9 34 -19 20 -15 -22 5 -52 -23 -160 -49 -188 -28
-30 -72 -27 -112 8 l-33 30 4 -83 c5 -104 -14 -176 -63 -233 -41 -49 -65 -100
-65 -142 0 -45 -9 -60 -51 -82 -33 -17 -39 -24 -39 -52 0 -86 179 -266 311
-312 129 -46 222 6 411 226 43 50 74 75 130 103 90 47 111 66 128 116 17 52 4
98 -54 188 -99 154 -120 237 -111 437 5 121 3 161 -10 209 -36 136 -114 234
-228 286 -60 28 -146 43 -197 34z"/>
<path d="M3599 2464 c-13 -14 -38 -34 -56 -45 -89 -55 -48 -180 82 -246 42
-22 147 -57 150 -50 17 48 38 78 51 73 8 -3 12 -2 9 3 -3 6 2 14 12 19 15 9
14 17 -19 84 -38 75 -90 137 -143 170 -40 24 -57 23 -86 -8z"/>
<path d="M2365 2296 c-11 -8 -24 -28 -30 -45 -12 -37 -550 -641 -570 -641 -16
0 -55 -47 -55 -66 0 -7 12 -26 26 -43 15 -18 42 -82 65 -153 98 -303 159 -495
159 -502 0 -4 -6 -6 -12 -5 -7 1 -28 1 -45 0 -28 -1 -33 -5 -33 -26 0 -25 -1
-25 -80 -25 l-80 0 0 -31 0 -32 -427 4 c-375 4 -428 2 -428 -11 0 -13 240 -15
2068 -17 1681 -1 2067 1 2067 11 0 22 -216 25 -1497 23 l-1201 -2 1 25 c2 24
0 25 -78 30 -74 5 -80 7 -83 28 -3 19 -9 22 -52 22 -27 0 -52 5 -56 12 -4 6
-53 153 -109 327 -73 226 -100 320 -92 329 5 7 10 27 9 44 -1 36 5 43 198 258
335 372 333 370 360 370 14 0 30 4 36 10 10 10 234 -118 234 -135 0 -5 23 -25
51 -43 28 -19 48 -29 44 -23 -3 6 3 27 15 45 l20 34 -33 21 c-19 12 -43 21
-53 21 -22 0 -237 127 -243 143 -7 19 -49 57 -64 57 -7 0 -22 -6 -32 -14z m55
-31 c17 -21 3 -57 -22 -53 -30 4 -45 32 -29 52 17 20 35 20 51 1z m-616 -707
c8 -14 7 -21 -6 -34 -30 -30 -75 9 -48 42 16 18 39 15 54 -8z"/>
<path d="M3560 2121 c0 -11 59 -20 65 -10 3 3 -5 9 -18 13 -31 8 -47 7 -47 -3z"/>
<path d="M3595 2060 c-8 -13 14 -42 26 -34 5 3 9 14 9 25 0 20 -24 26 -35 9z"/>
<path d="M2839 2008 c-17 -29 -38 -63 -46 -74 -12 -19 -12 -22 1 -27 16 -6
111 128 101 143 -12 19 -24 10 -56 -42z"/>
<path d="M2867 1974 c-31 -48 -57 -95 -57 -106 0 -20 26 -25 32 -6 5 14 29 5
84 -31 25 -17 31 -18 31 -5 0 8 -6 13 -14 10 -7 -3 -13 -1 -13 4 0 6 5 10 10
10 6 0 10 5 10 10 0 7 -6 7 -17 2 -24 -12 -43 -4 -43 18 0 12 10 21 29 25 20
4 28 11 24 21 -3 8 0 14 6 14 6 0 12 -13 12 -30 1 -16 3 -34 4 -40 1 -5 3 -17
4 -25 0 -8 7 -12 15 -9 8 3 16 -3 19 -15 3 -14 0 -21 -10 -21 -8 0 -11 5 -8
10 3 6 1 10 -5 10 -19 0 -5 -23 19 -32 20 -7 23 -6 18 12 -3 11 -1 20 4 20 5
0 9 -7 9 -15 0 -8 5 -15 11 -15 6 0 8 7 5 16 -3 9 -6 24 -6 35 0 10 -5 19 -11
19 -6 0 -9 -7 -5 -15 3 -8 1 -15 -4 -15 -5 0 -12 24 -15 54 -5 41 -11 53 -21
49 -8 -3 -14 -1 -14 5 0 5 12 13 26 16 45 12 21 15 -28 5 -34 -8 -45 -14 -41
-25 3 -8 0 -14 -7 -14 -6 0 -8 5 -5 10 3 6 1 10 -4 10 -6 0 -11 -7 -11 -15 0
-8 -5 -15 -11 -15 -5 0 -2 14 8 30 10 18 23 28 31 25 9 -3 11 1 7 15 -5 15 -2
20 12 20 10 0 14 4 8 8 -5 4 -10 16 -10 26 0 41 -23 23 -78 -60z m126 -86 c4
-32 2 -46 -7 -37 -10 10 -16 69 -7 69 5 0 11 -15 14 -32z m-113 -8 c0 -5 -2
-10 -4 -10 -3 0 -8 5 -11 10 -3 6 -1 10 4 10 6 0 11 -4 11 -10z"/>
<path d="M2950 1978 c0 -3 9 -6 20 -5 11 1 20 5 20 9 0 3 -9 6 -20 5 -11 -1
-20 -5 -20 -9z"/>
<path d="M3016 1918 c1 -13 3 -28 3 -35 1 -7 8 -10 16 -7 11 5 15 -1 15 -22 0
-46 14 -60 33 -34 17 25 12 61 -9 53 -8 -3 -14 -1 -14 5 0 18 39 21 43 3 2
-10 4 -9 3 4 -2 21 -4 22 -48 11 -25 -6 -28 -4 -28 19 0 14 -4 25 -8 25 -5 0
-8 -10 -6 -22z m64 -80 c0 -19 -2 -20 -10 -8 -13 19 -13 30 0 30 6 0 10 -10
10 -22z"/>
<path d="M3040 1914 c0 -7 8 -10 20 -7 11 3 20 8 20 12 0 4 -9 7 -20 7 -11 0
-20 -6 -20 -12z"/>
<path d="M2930 1890 c0 -5 5 -10 10 -10 6 0 10 5 10 10 0 6 -4 10 -10 10 -5 0
-10 -4 -10 -10z"/>
<path d="M2905 1880 c-3 -5 -1 -10 4 -10 6 0 11 5 11 10 0 6 -2 10 -4 10 -3 0
-8 -4 -11 -10z"/>
<path d="M4605 931 c-17 -4 -35 -17 -45 -34 -13 -24 -13 -30 0 -54 10 -17 25
-29 40 -30 24 -2 24 -2 -2 8 -43 17 -50 77 -10 95 9 4 80 10 157 14 l140 6
-125 1 c-69 0 -138 -2 -155 -6z"/>
<path d="M547 724 c-16 -16 -5 -25 26 -22 17 2 31 8 30 13 -3 12 -46 19 -56 9z"/>
<path d="M650 715 c0 -12 16 -15 80 -15 64 0 80 3 80 15 0 12 -16 15 -80 15
-64 0 -80 -3 -80 -15z"/>
<path d="M5032 718 c7 -20 68 -23 68 -4 0 12 -10 16 -36 16 -24 0 -34 -4 -32
-12z"/>
</g>
</svg>
